<?xml version="1.0" encoding="UTF-8" standalone="no"?>
<svg
   width="39"
   height="39"
   viewBox="0 0 38.999999 39"
   fill="none"
   version="1.1"
   id="svg635"
   sodipodi:docname="ns-logo-final-ver-justV.svg"
   inkscape:version="1.2.2 (b0a8486, 2022-12-01)"
   xmlns:inkscape="http://www.inkscape.org/namespaces/inkscape"
   xmlns:sodipodi="http://sodipodi.sourceforge.net/DTD/sodipodi-0.dtd"
   xmlns="http://www.w3.org/2000/svg"
   xmlns:svg="http://www.w3.org/2000/svg">
  <defs
     id="defs639" />
  <sodipodi:namedview
     id="namedview637"
     pagecolor="#ffffff"
     bordercolor="#666666"
     borderopacity="1.0"
     inkscape:showpageshadow="2"
     inkscape:pageopacity="0.0"
     inkscape:pagecheckerboard="0"
     inkscape:deskcolor="#d1d1d1"
     showgrid="false"
     inkscape:zoom="2.5414013"
     inkscape:cx="-150.31078"
     inkscape:cy="53.907268"
     inkscape:window-width="1920"
     inkscape:window-height="1016"
     inkscape:window-x="0"
     inkscape:window-y="27"
     inkscape:window-maximized="1"
     inkscape:current-layer="svg635" />
  <path
     id="circle621"
     d="M 19.5,0 A 19.5,19.5 0 0 0 0,19.5 19.5,19.5 0 0 0 19.5,39 19.5,19.5 0 0 0 39,19.5 19.5,19.5 0 0 0 19.5,0 Z m 3.753906,11.941406 c 0.03261,-0.0037 0.06922,-0.0037 0.109375,0.002 0.1861,0.0306 0.329941,0.06175 0.431641,0.09375 0.1526,0.048 0.386572,0.149688 0.701172,0.304688 0.340099,0.1629 0.518762,0.346728 0.539062,0.548828 0.0269,0.0923 2.2e-5,0.265232 -0.08008,0.519531 -0.0546,0.2624 -0.121172,0.521091 -0.201172,0.775391 -0.0546,0.2624 -0.09319,0.431412 -0.117187,0.507812 -0.5203,1.653299 -1.219757,3.209017 -2.097657,4.666016 0.6326,-0.4998 1.419176,-1.133891 2.359376,-1.900391 0.973499,-0.783899 2.010529,-1.547116 3.111328,-2.291015 1.108699,-0.769299 2.194213,-1.378073 3.257812,-1.826172 1.096999,-0.4654 2.063792,-0.650288 2.900391,-0.554688 l 0.304687,0.0957 c 0.1271,0.04 0.246222,0.106366 0.357422,0.197266 0.1366,0.0989 0.177194,0.235963 0.121094,0.414063 -0.088,0.279799 -0.2958,0.410425 -0.625,0.390625 -0.0844,0.0014 -0.177597,-0.01487 -0.279297,-0.04687 -0.0763,-0.024 -0.157888,-0.0346 -0.242187,-0.0332 -0.3881,-0.0103 -0.800229,0.05496 -1.236329,0.197265 -0.402799,0.1248 -0.782678,0.2712 -1.142578,0.4375 -1.515798,0.641199 -2.990029,1.462345 -4.423828,2.464844 -1.433698,1.002499 -2.801011,2.012198 -4.099609,3.029297 -0.2581,0.1983 -0.528901,0.393684 -0.8125,0.583984 -0.2581,0.1983 -0.493685,0.41655 -0.708985,0.65625 -0.1083,0.0778 -0.2136,0.185666 -0.3125,0.322266 -0.0735,0.1447 -0.155193,0.271712 -0.246093,0.382812 -0.1738,0.1969 -0.445154,0.349632 -0.814454,0.457032 -0.369299,0.107399 -0.692856,0.117296 -0.972656,0.0293 -0.0254,-0.008 -0.06061,-0.03282 -0.103515,-0.07422 -0.0509,-0.016 -0.07245,-0.0371 -0.06445,-0.0625 l 0.03711,-0.113282 c 0.1404,-0.179399 0.283241,-0.373225 0.431641,-0.578125 0.173799,-0.196899 0.322312,-0.400381 0.445312,-0.613281 0.542499,-0.835599 1.01411,-1.707988 1.412109,-2.617187 0.3979,-0.909099 0.744816,-1.834192 1.041016,-2.775391 0.2562,-0.813999 0.468725,-1.628807 0.640625,-2.441406 0.048,-0.1526 0.07116,-0.311869 0.06836,-0.480469 0.0306,-0.1861 0.07114,-0.355213 0.119141,-0.507813 0.03007,-0.0954 0.09356,-0.149046 0.191406,-0.160156 z"
     style="fill:#000000;fill-opacity:1" />
</svg>
