<?xml version="1.0" encoding="UTF-8" standalone="no"?>
<svg
   width="106.41"
   height="62.240002"
   viewBox="0 0 106.41 62.240002"
   fill="none"
   version="1.1"
   id="svg635"
   sodipodi:docname="ns-logo-final-ver-transWhite.svg"
   inkscape:version="1.2.2 (b0a8486, 2022-12-01)"
   xmlns:inkscape="http://www.inkscape.org/namespaces/inkscape"
   xmlns:sodipodi="http://sodipodi.sourceforge.net/DTD/sodipodi-0.dtd"
   xmlns="http://www.w3.org/2000/svg"
   xmlns:svg="http://www.w3.org/2000/svg">
  <defs
     id="defs639" />
  <sodipodi:namedview
     id="namedview637"
     pagecolor="#ffffff"
     bordercolor="#666666"
     borderopacity="1.0"
     inkscape:showpageshadow="2"
     inkscape:pageopacity="0.0"
     inkscape:pagecheckerboard="0"
     inkscape:deskcolor="#d1d1d1"
     showgrid="false"
     inkscape:zoom="2.5414013"
     inkscape:cx="-101.12531"
     inkscape:cy="54.300752"
     inkscape:window-width="1920"
     inkscape:window-height="1016"
     inkscape:window-x="0"
     inkscape:window-y="27"
     inkscape:window-maximized="1"
     inkscape:current-layer="svg635" />
  <circle
     cx="58"
     cy="20"
     r="19.5"
     fill="#000000"
     stroke="#000000"
     id="circle621"
     style="fill:#0e0e0e;fill-opacity:0" />
  <path
     d="M 1.2551,36 V 2.4 h 4.032 l 17.904,26.928 V 2.4 h 4.032 V 36 h -4.032 L 5.2871,9.072 V 36 Z"
     fill="#000000"
     id="path623" />
  <path
     d="m 57.5343,22.8653 c -0.0254,-0.008 -0.0595,-0.0328 -0.1024,-0.0742 -0.0509,-0.016 -0.0723,-0.0368 -0.0643,-0.0622 l 0.036,-0.1145 c 0.1404,-0.1794 0.2847,-0.3716 0.4331,-0.5765 0.1738,-0.1969 0.3221,-0.4019 0.4451,-0.6148 0.5425,-0.8356 1.0128,-1.708 1.4108,-2.6172 0.3979,-0.9091 0.745,-1.8342 1.0412,-2.7754 0.2562,-0.814 0.4702,-1.6272 0.6421,-2.4398 0.048,-0.1526 0.0706,-0.3132 0.0678,-0.4818 0.0306,-0.1861 0.0699,-0.3555 0.1179,-0.5081 0.0401,-0.1272 0.1404,-0.1794 0.301,-0.1568 0.1861,0.0306 0.33,0.0619 0.4317,0.0939 0.1526,0.048 0.3863,0.1495 0.7009,0.3045 0.3401,0.1629 0.5203,0.3454 0.5406,0.5475 0.0269,0.0923 3e-4,0.2657 -0.0798,0.52 -0.0546,0.2624 -0.122,0.5208 -0.202,0.7751 -0.0546,0.2624 -0.094,0.4317 -0.118,0.5081 -0.5203,1.6533 -1.2195,3.2085 -2.0974,4.6655 0.6326,-0.4998 1.4189,-1.1329 2.3591,-1.8994 0.9735,-0.7839 2.0107,-1.5477 3.1115,-2.2916 1.1087,-0.7693 2.1949,-1.3779 3.2585,-1.826 1.097,-0.4654 2.0637,-0.6504 2.9003,-0.5548 l 0.3053,0.096 c 0.1271,0.04 0.2463,0.1055 0.3575,0.1964 0.1366,0.0989 0.1769,0.2374 0.1208,0.4155 -0.088,0.2798 -0.2967,0.4098 -0.6259,0.39 -0.0844,0.0014 -0.1774,-0.0139 -0.2791,-0.0459 -0.0763,-0.024 -0.1567,-0.0353 -0.241,-0.0339 -0.3881,-0.0103 -0.8003,0.0557 -1.2364,0.198 -0.4028,0.1248 -0.784,0.2704 -1.1439,0.4367 -1.5158,0.6412 -2.9905,1.463 -4.4243,2.4655 -1.4337,1.0025 -2.7999,2.0122 -4.0985,3.0293 -0.2581,0.1983 -0.5289,0.3927 -0.8125,0.583 -0.2581,0.1983 -0.4947,0.4174 -0.71,0.6571 -0.1083,0.0778 -0.2119,0.1849 -0.3108,0.3215 -0.0735,0.1447 -0.1557,0.2726 -0.2466,0.3837 -0.1738,0.1969 -0.4453,0.3491 -0.8146,0.4565 -0.3693,0.1074 -0.6939,0.1171 -0.9737,0.0291 z"
     fill="#ffffff"
     id="path625"
     style="fill:#000000;fill-opacity:1" />
  <path
     d="M 88.552,36 V 2.4 h 4.032 V 36 Z"
     fill="#000000"
     id="path627" />
  <path
     d="m 63.94,62.24 c -1.0267,0 -1.92,-0.187 -2.68,-0.56 C 60.5,61.307 59.9133,60.787 59.5,60.12 59.0867,59.453 58.88,58.68 58.88,57.8 h 1.76 c 0,0.547 0.1267,1.053 0.38,1.52 0.2533,0.453 0.62,0.82 1.1,1.1 0.4933,0.267 1.1,0.4 1.82,0.4 0.9467,0 1.68,-0.227 2.2,-0.68 0.52,-0.453 0.78,-1.02 0.78,-1.7 0,-0.56 -0.12,-1.007 -0.36,-1.34 -0.24,-0.347 -0.5667,-0.627 -0.98,-0.84 -0.4,-0.213 -0.8667,-0.4 -1.4,-0.56 -0.52,-0.16 -1.0667,-0.34 -1.64,-0.54 -1.08,-0.373 -1.88,-0.833 -2.4,-1.38 -0.52,-0.56 -0.78,-1.287 -0.78,-2.18 -0.0133,-0.747 0.16,-1.407 0.52,-1.98 0.36,-0.587 0.8667,-1.04 1.52,-1.36 0.6667,-0.333 1.4533,-0.5 2.36,-0.5 0.8933,0 1.6667,0.167 2.32,0.5 0.6667,0.333 1.18,0.793 1.54,1.38 0.3733,0.587 0.5667,1.253 0.58,2 h -1.76 c 0,-0.387 -0.1,-0.767 -0.3,-1.14 -0.2,-0.387 -0.5067,-0.7 -0.92,-0.94 -0.4,-0.24 -0.9067,-0.36 -1.52,-0.36 -0.76,-0.013 -1.3867,0.18 -1.88,0.58 -0.48,0.4 -0.72,0.953 -0.72,1.66 0,0.6 0.1667,1.06 0.5,1.38 0.3467,0.32 0.8267,0.587 1.44,0.8 0.6133,0.2 1.32,0.433 2.12,0.7 0.6667,0.24 1.2667,0.52 1.8,0.84 0.5333,0.32 0.9467,0.733 1.24,1.24 0.3067,0.507 0.46,1.153 0.46,1.94 0,0.667 -0.1733,1.3 -0.52,1.9 -0.3467,0.587 -0.8733,1.067 -1.58,1.44 -0.6933,0.373 -1.5667,0.56 -2.62,0.56 z M 75.4555,62 l 5.16,-14 h 1.78 l 5.1395,14 h -1.78 l -1.2795,-3.6 h -5.96 l -1.3,3.6 z m 3.56,-4.96 h 4.96 l -2.48,-6.92 z M 94.91,62 V 48 h 4.3 c 2.466,0 4.28,0.627 5.44,1.88 1.173,1.253 1.76,2.973 1.76,5.16 0,2.147 -0.587,3.847 -1.76,5.1 -1.16,1.24 -2.974,1.86 -5.44,1.86 z m 1.68,-1.4 h 2.58 c 1.36,0 2.44,-0.22 3.24,-0.66 0.813,-0.453 1.393,-1.093 1.74,-1.92 0.346,-0.84 0.52,-1.833 0.52,-2.98 0,-1.173 -0.174,-2.18 -0.52,-3.02 -0.347,-0.84 -0.927,-1.487 -1.74,-1.94 -0.8,-0.453 -1.88,-0.68 -3.24,-0.68 h -2.58 z"
     fill="#000000"
     id="path629" />
  <path
     d="M 0,42 H 29"
     stroke="#000000"
     id="path631" />
  <path
     d="m 76,42 h 29"
     stroke="#000000"
     id="path633" />
</svg>
